<?xml version="1.0" encoding="utf-8"?>
<!-- Generator: Adobe Illustrator 27.5.0, SVG Export Plug-In . SVG Version: 6.00 Build 0)  -->
<svg version="1.1" id="Layer_1" xmlns="http://www.w3.org/2000/svg" xmlns:xlink="http://www.w3.org/1999/xlink" x="0px" y="0px"
	 viewBox="0 0 1959.9 1179.8" style="enable-background:new 0 0 1959.9 1179.8;" xml:space="preserve">
<style type="text/css">
	.st0{fill:#FFFFFF;}
	.st1{fill-rule:evenodd;clip-rule:evenodd;fill:#3636E8;}
	.st2{fill-rule:evenodd;clip-rule:evenodd;fill:#4B4BEF;}
	.st3{fill-rule:evenodd;clip-rule:evenodd;fill:#2121C1;}
	.st4{fill-rule:evenodd;clip-rule:evenodd;fill:#03038D;}
</style>
<rect class="st0" width="1959.9" height="1184.5"/>
<polygon class="st1" points="61.6,742.5 142.2,692.4 0,473.1 "/>
<polygon class="st2" points="61.6,742.5 0,473.1 0,936.4 "/>
<polygon class="st3" points="191.3,877.6 61.6,742.5 0,936.4 "/>
<polygon class="st2" points="61.6,742.5 191.3,877.6 142.2,692.4 "/>
<polygon class="st3" points="191.3,877.6 0,936.4 250.1,993.1 "/>
<polygon class="st2" points="191.3,877.6 250.1,993.1 319.8,973.5 "/>
<polygon class="st4" points="191.3,877.6 319.8,973.5 361.2,868.9 "/>
<polygon class="st4" points="250.1,993.1 0,936.4 291.5,1184.5 "/>
<polygon class="st3" points="250.1,993.1 291.5,1184.5 319.8,973.5 "/>
<polygon class="st3" points="291.5,1184.5 0,936.4 0,1084.6 "/>
<polygon class="st4" points="291.5,1184.5 0,1084.6 0,1184.5 "/>
<polygon class="st4" points="319.8,973.5 291.5,1184.5 457.1,1184.5 "/>
<polygon class="st3" points="319.8,973.5 457.1,1184.5 716.5,1184.5 "/>
<polygon class="st4" points="319.8,973.5 716.5,1184.5 718.3,1178.9 611.9,1023.6 "/>
<polygon class="st1" points="319.8,973.5 611.9,1023.6 361.2,868.9 "/>
<polygon class="st2" points="790.6,956 611.9,1023.6 718.3,1178.9 "/>
<polygon class="st4" points="790.3,956 717.7,1179.6 719.7,1182.6 855.9,1089.4 "/>
<polygon class="st2" points="855.9,1089 720.3,1181.9 716.5,1184.5 1220.3,1184.5 "/>
<polygon class="st1" points="790.6,956 855.9,1089 1220.3,1184.5 "/>
<polygon class="st1" points="1898.4,742.5 1817.7,692.4 1959.9,473.1 "/>
<polygon class="st2" points="1898.4,742.5 1959.9,473.1 1959.9,936.4 "/>
<polygon class="st3" points="1768.7,877.6 1898.4,742.5 1959.9,936.4 "/>
<polygon class="st2" points="1898.4,742.5 1768.7,877.6 1817.7,692.4 "/>
<polygon class="st1" points="1819.4,692.4 1770.3,877.6 1600.3,868.9 "/>
<polygon class="st3" points="1768.7,877.6 1959.9,936.4 1709.8,993.1 "/>
<polygon class="st2" points="1768.7,877.6 1709.8,993.1 1640.1,973.5 "/>
<polygon class="st4" points="1768.7,877.6 1640.1,973.5 1598.7,868.9 "/>
<polygon class="st4" points="1709.8,993.1 1959.9,936.4 1668.4,1184.5 "/>
<polygon class="st3" points="1709.8,993.1 1668.4,1184.5 1640.1,973.5 "/>
<polygon class="st3" points="1668.4,1184.5 1959.9,936.4 1959.9,1084.6 "/>
<polygon class="st4" points="1668.4,1184.5 1959.9,1084.6 1959.9,1184.5 "/>
<polygon class="st4" points="1640.1,973.5 1668.4,1184.5 1502.8,1184.5 "/>
<polygon class="st3" points="1640.1,973.5 1502.8,1184.5 1243.5,1184.5 "/>
<polygon class="st4" points="1640.1,973.5 1243.5,1184.5 1241.7,1178.9 1348.1,1023.6 "/>
<polygon class="st1" points="1640.1,973.5 1348.1,1023.6 1598.7,868.9 "/>
<polygon class="st2" points="1169.4,956 1348.1,1023.6 1241.7,1178.9 "/>
<polygon class="st4" points="1169.6,956 1242.1,1180.1 1240,1183.1 1104,1089.7 "/>
<polygon class="st2" points="1104,1089 1239.6,1181.9 1243.5,1184.5 739.6,1184.5 "/>
<polygon class="st1" points="1169.4,956 1104,1089 739.6,1184.5 "/>
</svg>
